<svg width="285" height="56" viewBox="0 0 285 56" fill="none" xmlns="http://www.w3.org/2000/svg">
<path d="M5.72607 48V8.8H13.23L29.918 36.464H25.942L42.35 8.8H49.798L49.91 48H41.398L41.342 21.848H42.91L29.806 43.856H25.718L12.334 21.848H14.238V48H5.72607ZM72.9304 48.448C69.7197 48.448 66.8637 47.776 64.3624 46.432C61.8984 45.088 59.9384 43.2587 58.4824 40.944C57.0637 38.592 56.3544 35.9227 56.3544 32.936C56.3544 29.912 57.0637 27.2427 58.4824 24.928C59.9384 22.576 61.8984 20.7467 64.3624 19.44C66.8637 18.096 69.7197 17.424 72.9304 17.424C76.1037 17.424 78.9411 18.096 81.4424 19.44C83.9437 20.7467 85.9037 22.5573 87.3224 24.872C88.7411 27.1867 89.4504 29.8747 89.4504 32.936C89.4504 35.9227 88.7411 38.592 87.3224 40.944C85.9037 43.2587 83.9437 45.088 81.4424 46.432C78.9411 47.776 76.1037 48.448 72.9304 48.448ZM72.9304 41.28C74.3864 41.28 75.6931 40.944 76.8504 40.272C78.0078 39.6 78.9224 38.648 79.5944 37.416C80.2664 36.1467 80.6024 34.6533 80.6024 32.936C80.6024 31.1813 80.2664 29.688 79.5944 28.456C78.9224 27.224 78.0078 26.272 76.8504 25.6C75.6931 24.928 74.3864 24.592 72.9304 24.592C71.4744 24.592 70.1677 24.928 69.0104 25.6C67.8531 26.272 66.9197 27.224 66.2104 28.456C65.5384 29.688 65.2024 31.1813 65.2024 32.936C65.2024 34.6533 65.5384 36.1467 66.2104 37.416C66.9197 38.648 67.8531 39.6 69.0104 40.272C70.1677 40.944 71.4744 41.28 72.9304 41.28ZM113.098 48.448C110.447 48.448 108.17 47.888 106.266 46.768C104.362 45.648 102.906 43.9493 101.898 41.672C100.89 39.3573 100.386 36.4453 100.386 32.936C100.386 29.3893 100.908 26.4773 101.954 24.2C103.036 21.9227 104.53 20.224 106.434 19.104C108.338 17.984 110.559 17.424 113.098 17.424C115.935 17.424 118.474 18.0587 120.714 19.328C122.991 20.5973 124.783 22.3893 126.09 24.704C127.434 27.0187 128.106 29.7627 128.106 32.936C128.106 36.072 127.434 38.7973 126.09 41.112C124.783 43.4267 122.991 45.2373 120.714 46.544C118.474 47.8133 115.935 48.448 113.098 48.448ZM95.2897 48V6.448H104.026V23.976L103.466 32.88L103.634 41.84V48H95.2897ZM111.586 41.28C113.042 41.28 114.33 40.944 115.45 40.272C116.607 39.6 117.522 38.648 118.194 37.416C118.903 36.1467 119.258 34.6533 119.258 32.936C119.258 31.1813 118.903 29.688 118.194 28.456C117.522 27.224 116.607 26.272 115.45 25.6C114.33 24.928 113.042 24.592 111.586 24.592C110.13 24.592 108.823 24.928 107.666 25.6C106.508 26.272 105.594 27.224 104.922 28.456C104.25 29.688 103.914 31.1813 103.914 32.936C103.914 34.6533 104.25 36.1467 104.922 37.416C105.594 38.648 106.508 39.6 107.666 40.272C108.823 40.944 110.13 41.28 111.586 41.28ZM133.954 48V17.872H142.69V48H133.954ZM169.11 17.424C171.499 17.424 173.627 17.9093 175.494 18.88C177.398 19.8133 178.891 21.2693 179.974 23.248C181.056 25.1893 181.598 27.6907 181.598 30.752V48H172.862V32.096C172.862 29.6693 172.32 27.8773 171.238 26.72C170.192 25.5627 168.699 24.984 166.758 24.984C165.376 24.984 164.126 25.2827 163.006 25.88C161.923 26.44 161.064 27.3173 160.43 28.512C159.832 29.7067 159.534 31.2373 159.534 33.104V48H150.798V17.872H159.142V26.216L157.574 23.696C158.656 21.68 160.206 20.1307 162.222 19.048C164.238 17.9653 166.534 17.424 169.11 17.424ZM202.671 48.448C199.834 48.448 197.276 47.8133 194.999 46.544C192.722 45.2373 190.911 43.4267 189.567 41.112C188.26 38.7973 187.607 36.072 187.607 32.936C187.607 29.7627 188.26 27.0187 189.567 24.704C190.911 22.3893 192.722 20.5973 194.999 19.328C197.276 18.0587 199.834 17.424 202.671 17.424C205.21 17.424 207.431 17.984 209.335 19.104C211.239 20.224 212.714 21.9227 213.759 24.2C214.804 26.4773 215.327 29.3893 215.327 32.936C215.327 36.4453 214.823 39.3573 213.815 41.672C212.807 43.9493 211.351 45.648 209.447 46.768C207.58 47.888 205.322 48.448 202.671 48.448ZM204.183 41.28C205.602 41.28 206.89 40.944 208.047 40.272C209.204 39.6 210.119 38.648 210.791 37.416C211.5 36.1467 211.855 34.6533 211.855 32.936C211.855 31.1813 211.5 29.688 210.791 28.456C210.119 27.224 209.204 26.272 208.047 25.6C206.89 24.928 205.602 24.592 204.183 24.592C202.727 24.592 201.42 24.928 200.263 25.6C199.106 26.272 198.172 27.224 197.463 28.456C196.791 29.688 196.455 31.1813 196.455 32.936C196.455 34.6533 196.791 36.1467 197.463 37.416C198.172 38.648 199.106 39.6 200.263 40.272C201.42 40.944 202.727 41.28 204.183 41.28ZM212.079 48V41.84L212.247 32.88L211.687 23.976V6.448H220.423V48H212.079ZM243.461 48.448C240.026 48.448 237.002 47.776 234.389 46.432C231.813 45.088 229.815 43.2587 228.397 40.944C226.978 38.592 226.269 35.9227 226.269 32.936C226.269 29.912 226.959 27.2427 228.341 24.928C229.759 22.576 231.682 20.7467 234.109 19.44C236.535 18.096 239.279 17.424 242.341 17.424C245.29 17.424 247.941 18.0587 250.293 19.328C252.682 20.56 254.567 22.352 255.949 24.704C257.33 27.0187 258.021 29.8 258.021 33.048C258.021 33.384 258.002 33.776 257.965 34.224C257.927 34.6347 257.89 35.0267 257.853 35.4H233.381V30.304H253.261L249.901 31.816C249.901 30.248 249.583 28.8853 248.949 27.728C248.314 26.5707 247.437 25.6747 246.317 25.04C245.197 24.368 243.89 24.032 242.397 24.032C240.903 24.032 239.578 24.368 238.421 25.04C237.301 25.6747 236.423 26.5893 235.789 27.784C235.154 28.9413 234.837 30.3227 234.837 31.928V33.272C234.837 34.9147 235.191 36.3707 235.901 37.64C236.647 38.872 237.674 39.824 238.981 40.496C240.325 41.1307 241.893 41.448 243.685 41.448C245.29 41.448 246.69 41.2053 247.885 40.72C249.117 40.2347 250.237 39.5067 251.245 38.536L255.893 43.576C254.511 45.144 252.775 46.3573 250.685 47.216C248.594 48.0373 246.186 48.448 243.461 48.448ZM263.837 48V17.872H272.181V26.384L271.005 23.92C271.901 21.792 273.338 20.1867 275.317 19.104C277.295 17.984 279.703 17.424 282.541 17.424V25.488C282.167 25.4507 281.831 25.432 281.533 25.432C281.234 25.3947 280.917 25.376 280.581 25.376C278.191 25.376 276.25 26.0667 274.757 27.448C273.301 28.792 272.573 30.9013 272.573 33.776V48H263.837Z" fill="white"/>
<path d="M138.3 16.5L132.238 6H144.362L138.3 16.5Z" fill="#E63946"/>
</svg>
